Coordinates
version=1
nRows=7
nColumns=42
inDegrees=yes

Units are S.I. units (second, meters, Newtons, ...)
If the header above contains a line with 'inDegrees', this indicates whether rotational values are in degrees (yes) or radians (no).

endheader
time	pelvis_tilt	pelvis_list	pelvis_rotation	pelvis_tx	pelvis_ty	pelvis_tz	hip_flexion_r	hip_adduction_r	hip_rotation_r	knee_angle_r	knee_adduction_r	knee_angle_r_beta	ankle_angle_r	subtalar_angle_r	mtp_angle_r	hip_flexion_l	hip_adduction_l	hip_rotation_l	knee_angle_l	knee_adduction_l	knee_angle_l_beta	ankle_angle_l	subtalar_angle_l	mtp_angle_l	lumbar_extension	lumbar_bending	lumbar_rotation	arm_flex_r	arm_add_r	arm_rot_r	elbow_flex_r	pro_sup_r	wrist_flex_r	wrist_dev_r	arm_flex_l	arm_add_l	arm_rot_l	elbow_flex_l	pro_sup_l	wrist_flex_l	wrist_dev_l
      1.15000000	     13.52840620	    -10.25689177	     -3.24098498	     -0.77488584	      0.86131129	      0.17248854	     14.33215368	      0.22047851	    -25.50362718	     28.57294901	     -6.17385596	      0.49869204	     -1.74182641	      7.91189632	     -7.96454194	     -9.67127927	     -9.23001122	    -26.70795627	     22.88781195	     -3.54061746	      0.39946768	     19.10828452	     25.06681366	     -7.96454194	    -33.48911724	      7.02055240	     -0.26956795	    -14.09821481	     -0.58407088	    -12.80203654	    109.66199668	     90.00000001	      0.00000000	      0.00000000	     -2.71023485	    -11.32983598	    -16.84381790	     50.10293368	     90.00000001	      0.00000000	      0.00000000
      1.16000000	     13.54271963	    -10.10925592	     -2.97440319	     -0.77280389	      0.86095543	      0.17320773	     14.30023576	      0.36025046	    -25.45942440	     28.61918836	     -6.17897463	      0.49949907	     -1.76671196	      7.93276037	     -7.96377562	     -9.75431187	     -9.20172613	    -26.61885229	     22.94020021	     -3.56886211	      0.40038202	     19.11345947	     25.05395153	     -7.96377562	    -33.30151718	      6.80580260	     -0.25363809	    -14.08389744	     -0.58863659	    -12.77963598	    109.67204723	     90.00000001	      0.00000000	      0.00000000	     -2.78876661	    -11.23621035	    -16.81854416	     50.05521865	     90.00000001	      0.00000000	      0.00000000
      1.17000000	     13.85842182	     -9.99919839	     -2.59506539	     -0.77053798	      0.86097021	      0.17381639	     13.80907374	      0.60115301	    -25.54099714	     28.41989162	     -6.35917129	      0.49602068	     -2.17549593	      8.35095604	     -7.95474492	    -10.31389370	     -9.14108641	    -25.91247152	     22.74919169	     -3.37471208	      0.39704830	     19.78295745	     25.25398602	     -7.95474492	    -33.42249013	      6.70848669	     -0.44306639	    -14.09768860	     -0.70346071	    -12.22400967	    110.09541586	     90.00000001	      0.00000000	      0.00000000	     -2.81611528	    -11.08918571	    -16.77806113	     49.07082677	     90.00000001	      0.00000000	      0.00000000
      1.18000000	     13.82948345	     -9.84702447	     -2.32492699	     -0.76839143	      0.86055433	      0.17462647	     13.75263161	      0.74428356	    -25.51169803	     28.47467388	     -6.34112560	      0.49697681	     -2.18351924	      8.36820859	     -7.95406864	    -10.35184235	     -9.12853812	    -25.86918061	     22.79177851	     -3.40809741	      0.39779158	     19.77231445	     25.23417393	     -7.95406864	    -33.20549118	      6.48902605	     -0.40424742	    -14.07321180	     -0.71415939	    -12.20839794	    110.09899205	     90.00000001	      0.00000000	      0.00000000	     -2.85802060	    -11.03402310	    -16.76320948	     49.04901018	     90.00000001	      0.00000000	      0.00000000
      1.19000000	     13.95974961	     -9.71684653	     -1.99476549	     -0.76609194	      0.86030724	      0.17535646	     13.43582858	      0.96304427	    -25.51156611	     28.39163358	     -6.44247596	      0.49552749	     -2.20587220	      8.75154766	     -7.94342209	    -10.60807264	     -9.10758739	    -25.58557081	     22.79226887	     -3.39162362	      0.39780014	     20.09723934	     25.39734997	     -7.94342209	    -33.14084495	      6.35292235	     -0.48306992	    -14.07246473	     -0.84268928	    -11.79116586	    110.27476644	     90.00000001	      0.00000000	      0.00000000	     -2.84263662	    -10.90926837	    -16.77069413	     48.37016337	     90.00000001	      0.00000000	      0.00000000
      1.20000000	     13.90990080	     -9.55717039	     -1.72731532	     -0.76381725	      0.85984903	      0.17621544	     13.32993602	      1.11084509	    -25.47951603	     28.44942300	     -6.42912692	      0.49653610	     -2.21357115	      8.76708336	     -7.94278424	    -10.63410249	     -9.09447645	    -25.54166719	     22.82858570	     -3.42567851	      0.39843398	     20.08993632	     25.38182104	     -7.94278424	    -32.89909187	      6.13652073	     -0.43750143	    -14.03919023	     -0.85003229	    -11.77710010	    110.28106819	     90.00000001	      0.00000000	      0.00000000	     -2.88566028	    -10.86168527	    -16.75976670	     48.35354717	     90.00000001	      0.00000000	      0.00000000
      1.21000000	     13.86099835	     -9.39381740	     -1.45682317	     -0.76147306	      0.85937302	      0.17708059	     13.19312722	      1.26395243	    -25.43678472	     28.50229444	     -6.43074337	      0.49745888	     -2.22097343	      8.78437663	     -7.94218136	    -10.66730489	     -9.07237458	    -25.48195859	     22.86892298	     -3.46535273	      0.39913800	     20.09239781	     25.37451341	     -7.94218136	    -32.65914795	      5.92944653	     -0.39736718	    -14.00462374	     -0.85368778	    -11.75827091	    110.29094426	     90.00000001	      0.00000000	      0.00000000	     -2.94447502	    -10.80198831	    -16.74735002	     48.32627670	     90.00000001	      0.00000000	      0.00000000
